<svg xmlns="http://www.w3.org/2000/svg" xmlns:xlink="http://www.w3.org/1999/xlink" xmlns:fi="http://pattern.flaticon.com/" x="0" y="0" width="1024" height="512" viewBox="0 0 1024 512"><rect x="0px" y="0px" width="100%" height="100%" opacity="1" fill="#5c22d9"/><defs><g transform="matrix(0.1171877309679985 0 0 0.1171877309679985 38 275.99999691008907)" id="L1_1"><circle cx="10" cy="500" r="10" fill="#ffffff"/><circle cx="267" cy="245" r="10" fill="#ffffff"/><path d="M398.479,118.032c-8.071-8.072-18.802-12.516-30.216-12.516c-11.414,0-22.146,4.446-30.216,12.516    c-16.661,16.662-16.661,43.772,0,60.433c8.332,8.331,19.272,12.495,30.216,12.495c10.941,0,21.886-4.166,30.216-12.495    C415.14,161.803,415.14,134.693,398.479,118.032z M384.282,164.266c-8.833,8.832-23.206,8.832-32.037,0    c-8.833-8.832-8.833-23.204,0-32.037c4.279-4.279,9.967-6.635,16.018-6.635c6.051,0,11.739,2.356,16.018,6.635    C393.114,141.062,393.114,155.434,384.282,164.266z" fill="#ffffff"/><path d="M125.409,411.45c-4.964-2.472-10.99-0.451-13.462,4.512l-11.958,24.015c-5.2,10.441-15.658,17.423-27.296,18.219    l-13.908,0.952c-2.351,0.157-3.897-1.014-4.612-1.729s-1.889-2.264-1.729-4.613l0.952-13.907    c0.797-11.637,7.779-22.096,18.219-27.296l24.014-11.958c4.964-2.472,6.984-8.499,4.512-13.462    c-2.471-4.963-8.498-6.984-13.462-4.512l-24.014,11.958c-16.792,8.362-28.02,25.182-29.302,43.898l-0.952,13.907    c-0.514,7.507,2.242,14.863,7.562,20.183c4.898,4.898,11.523,7.624,18.403,7.624c0.591,0,1.186-0.02,1.78-0.061l13.908-0.952    c18.716-1.281,35.536-12.508,43.898-29.302l11.958-24.014C132.392,419.948,130.372,413.922,125.409,411.45z" fill="#ffffff"/><path d="M505.07,8.18c-4.711-4.641-11.201-7.068-17.793-6.639l-9.348,0.596c-83.819,5.351-162.262,45.81-215.215,111.004    L240.71,140.23l-57.583-1.691c-0.098-0.003-0.197-0.004-0.294-0.004c-45.668,0-88.603,17.784-120.896,50.076L2.959,247.59    c-2.805,2.805-3.696,7-2.272,10.702c1.424,3.703,4.894,6.221,8.856,6.423l124.844,6.414l-5.09,6.267    c-2.565,3.159-2.971,7.553-1.026,11.127c1.956,3.596,4.006,7.135,6.144,10.617l-29.606,35.147    c-2.531,3.005-3.076,7.211-1.397,10.763c6.467,13.665,15.05,25.943,25.514,36.493c10.718,10.808,23.251,19.646,37.249,26.271    c1.368,0.648,2.835,0.965,4.293,0.965c2.261,0,4.503-0.764,6.327-2.243c6.378-5.174,13.731-11.311,20.843-17.245    c5.069-4.23,10.255-8.557,15.102-12.547c2.893,1.741,5.822,3.429,8.795,5.046c1.504,0.818,3.153,1.221,4.796,1.221    c2.186,0,4.358-0.712,6.156-2.108l6.843-5.31l6.442,125.37c0.204,3.962,2.721,7.432,6.423,8.856c1.172,0.45,2.39,0.67,3.6,0.67    c2.615,0,5.183-1.023,7.101-2.942l58.979-58.979c32.293-32.293,50.076-75.227,50.076-120.896v-54.995l23.267-18.055    c69.729-54.11,112.196-135.704,116.512-223.862l0.239-4.886C512.295,19.27,509.779,12.822,505.07,8.18z M33.123,245.822    l43.012-43.012c28.465-28.465,66.303-44.157,106.553-44.196l42.085,1.236l-74.71,91.98L33.123,245.822z M184.774,373.874    c-5.241,4.372-10.614,8.856-15.6,12.957c-9.644-5.223-18.368-11.74-25.992-19.428c-7.384-7.445-13.669-15.922-18.737-25.26    l21.676-25.733c6.554,8.793,13.728,17.122,21.478,24.925c0.006,0.006,0.012,0.011,0.018,0.017    c0.002,0.002,0.004,0.005,0.006,0.007c0.003,0.003,0.006,0.005,0.009,0.008c8.593,8.648,17.836,16.584,27.641,23.761    C191.811,368.002,188.264,370.962,184.774,373.874z M351.875,327.672c0,40.305-15.695,78.197-44.196,106.698l-43.012,43.012    l-6.002-116.792l93.209-72.33V327.672z M491.678,29.779c-4.029,82.297-43.673,158.467-108.767,208.98l-157.46,122.189    c-13.058-7.63-25.229-16.639-36.368-26.846l53.086-53.086c3.92-3.92,3.92-10.278,0-14.199c-3.921-3.921-10.278-3.921-14.199,0    l-53.036,53.036c-9.751-10.795-18.387-22.541-25.74-35.104L278.3,125.8C327.732,64.941,400.96,27.171,479.207,22.177l9.348-0.596    c1.225-0.076,2.045,0.532,2.423,0.904c0.377,0.371,1,1.178,0.94,2.409L491.678,29.779z" fill="#ffffff"/></g><g transform="matrix(0.12495262175798416 0 0 0.12495262175798416 277 153)" id="L1_2"><path d="M200.182,32.106c-92.784,0-168,75.216-168,168s75.216,168,168,168s168-75.216,168-168    C368.081,107.364,292.924,32.207,200.182,32.106z M200.182,48.106c49.416,0.039,95.723,24.123,124.128,64.56l-20,20    c-4.867-2.945-10.439-4.521-16.128-4.56c-17.673,0-32,14.327-32,32c0.028,5.695,1.595,11.276,4.536,16.152l-52.384,52.384    c-9.919-6.048-22.385-6.048-32.304,0l-36.384-36.384c2.941-4.876,4.508-10.457,4.536-16.152    c0.022-17.638-14.258-31.954-31.896-31.976c-14.587-0.018-27.332,9.849-30.968,23.976h-29.68    C66.785,98.159,128.614,48.211,200.182,48.106z M304.182,160.106c0,8.837-7.163,16-16,16s-16-7.163-16-16s7.163-16,16-16    S304.182,151.269,304.182,160.106z M208.182,256.106c0,8.837-7.163,16-16,16s-16-7.163-16-16c0-8.837,7.163-16,16-16    S208.182,247.269,208.182,256.106z M128.182,176.106c0,8.837-7.163,16-16,16s-16-7.163-16-16s7.163-16,16-16    S128.182,167.269,128.182,176.106z M274.036,333.012c-22.592,12.544-48.012,19.116-73.854,19.093    c-83.89,0.057-151.943-67.902-152-151.792c-0.004-5.414,0.282-10.825,0.856-16.208h32.28c3.637,14.085,16.317,23.945,30.864,24    c5.695-0.028,11.276-1.595,16.152-4.536l36.384,36.384c-2.941,4.876-4.508,10.457-4.536,16.152c0,17.673,14.327,32,32,32    s32-14.327,32-32c-0.028-5.695-1.595-11.276-4.536-16.152l52.384-52.384c4.876,2.941,10.457,4.508,16.152,4.536    c17.673,0,32-14.327,32-32c-0.028-5.695-1.595-11.276-4.536-16.152l17.44-17.432C373.801,199.849,347.363,292.298,274.036,333.012    z" fill="#ffffff"/><path d="M400.182,80.106c14.547-0.055,27.227-9.914,30.864-24h49.136v-16h-49.136c-3.637-14.086-16.317-23.945-30.864-24    c-17.673,0-32,14.327-32,32c0.028,5.695,1.595,11.276,4.536,16.152l-14.056,14.056C291.407-9.307,165.855-25.817,78.234,41.438    S-25.897,234.246,41.358,321.867c63.484,82.707,179.855,102.77,267.368,46.095l24.144,24.144l11.312,11.312l64.4,64.4    c16.379,16.379,42.933,16.379,59.312,0c16.379-16.379,16.379-42.933,0-59.312l-64.4-64.4l-11.312-11.312l-24.144-24.144    c42.859-66.016,42.859-151.071,0-217.088l16-16C388.911,78.504,394.49,80.074,400.182,80.106z M400.182,32.106    c8.837,0,16,7.163,16,16s-7.163,16-16,16s-16-7.163-16-16S391.346,32.106,400.182,32.106z M456.582,419.818    c10.246,10.016,10.433,26.442,0.417,36.688c-10.016,10.246-26.442,10.433-36.688,0.417c-0.141-0.137-0.279-0.276-0.417-0.417    l-64.4-64.4l36.688-36.688L456.582,419.818z M380.87,344.106l-36.688,36.688l-22.144-22.144c1.128-0.864,2.184-1.816,3.296-2.704    s2.4-1.952,3.592-2.952c1.752-1.472,3.48-2.96,5.176-4.488c0.872-0.8,1.704-1.6,2.56-2.4c3.28-3.072,6.456-6.248,9.528-9.528    c0.8-0.856,1.6-1.688,2.4-2.56c1.528-1.696,3.016-3.424,4.488-5.176c1.003-1.184,1.987-2.381,2.952-3.592    c0.88-1.104,1.832-2.16,2.696-3.288L380.87,344.106z M349.846,306.946c-2.52,3.52-5.12,6.968-7.864,10.288    c-0.8,0.968-1.656,1.904-2.48,2.856c-2.448,2.848-4.976,5.611-7.584,8.288c-1.136,1.173-2.291,2.328-3.464,3.464    c-2.667,2.608-5.429,5.136-8.288,7.584c-0.952,0.8-1.888,1.672-2.856,2.48c-3.32,2.744-6.768,5.344-10.288,7.864    c-82.816,59.165-197.915,39.992-257.08-42.824S9.95,109.031,92.766,49.866S290.681,9.873,349.846,92.69    C395.627,156.772,395.627,242.864,349.846,306.946z" fill="#ffffff"/></g><g transform="matrix(0.1171875 0 0 0.1171875 148 30)" id="L1_3"><path d="M488.399,492h-21.933V173.536c0-14.823-12.06-26.882-26.882-26.882H390.56c-14.823,0-26.882,12.06-26.882,26.882V492    h-55.692V317.825c0-14.823-12.059-26.882-26.882-26.882H232.08c-14.823,0-26.882,12.06-26.882,26.882V492h-55.692v-90.204    c0-14.823-12.06-26.882-26.882-26.882H73.599c-14.823,0-26.882,12.06-26.882,26.882V492H23.601c-5.523,0-10,4.477-10,10    s4.477,10,10,10h464.798c5.523,0,10-4.477,10-10S493.922,492,488.399,492z M129.504,492H66.716v-90.204    c0-3.795,3.087-6.882,6.882-6.882h49.024c3.795,0,6.882,3.087,6.882,6.882V492z M287.985,492h-62.788V317.825    c0-3.795,3.087-6.882,6.882-6.882h49.024c3.794,0,6.882,3.087,6.882,6.882V492z M446.466,492h-62.788V173.536    c0-3.795,3.087-6.882,6.882-6.882h49.024c3.795,0,6.882,3.087,6.882,6.882V492z" fill="#ffffff"/><path d="M466.442,10.516c0.14-2.729-0.82-5.504-2.904-7.588c-2.084-2.084-4.859-3.045-7.588-2.904    C455.789,0.017,455.63,0,455.466,0h-60.5c-5.523,0-10,4.477-10,10s4.477,10,10,10h37.357l-98.857,98.858l-37.28-37.28    c-1.875-1.875-4.419-2.929-7.071-2.929c-2.652,0-5.196,1.054-7.071,2.929l-179.769,179.77c-3.905,3.905-3.905,10.237,0,14.143    c1.953,1.951,4.512,2.927,7.071,2.927s5.119-0.976,7.071-2.929L289.115,102.79l37.28,37.28c3.905,3.905,10.237,3.905,14.143,0    L446.466,34.143v33.81c0,5.523,4.477,10,10,10s10-4.477,10-10V11C466.466,10.837,466.449,10.678,466.442,10.516z" fill="#ffffff"/><circle cx="75" cy="303" r="10" fill="#ffffff"/></g></defs><g fi:class="KUsePattern" opacity="0.24"><pattern id="pattern_L1_2" width="350" height="350" patternUnits="userSpaceOnUse"><use xlink:href="#L1_2" x="-350" y="-350"/><use xlink:href="#L1_2" x="0" y="-350"/><use xlink:href="#L1_2" x="350" y="-350"/><use xlink:href="#L1_2" x="-350" y="0"/><use xlink:href="#L1_2" x="0" y="0"/><use xlink:href="#L1_2" x="350" y="0"/><use xlink:href="#L1_2" x="-350" y="350"/><use xlink:href="#L1_2" x="0" y="350"/><use xlink:href="#L1_2" x="350" y="350"/></pattern><rect x="0" y="0" width="100%" height="100%" fill="url(#pattern_L1_2)"/></g><g fi:class="KUsePattern" opacity="0.25"><pattern id="pattern_L1_3" width="350" height="350" patternUnits="userSpaceOnUse"><use xlink:href="#L1_3" x="-350" y="-350"/><use xlink:href="#L1_3" x="0" y="-350"/><use xlink:href="#L1_3" x="350" y="-350"/><use xlink:href="#L1_3" x="-350" y="0"/><use xlink:href="#L1_3" x="0" y="0"/><use xlink:href="#L1_3" x="350" y="0"/><use xlink:href="#L1_3" x="-350" y="350"/><use xlink:href="#L1_3" x="0" y="350"/><use xlink:href="#L1_3" x="350" y="350"/></pattern><rect x="0" y="0" width="100%" height="100%" fill="url(#pattern_L1_3)"/></g><g fi:class="KUsePattern" opacity="0.24"><pattern id="pattern_L1_1" width="350" height="350" patternUnits="userSpaceOnUse"><use xlink:href="#L1_1" x="-350" y="-350"/><use xlink:href="#L1_1" x="0" y="-350"/><use xlink:href="#L1_1" x="350" y="-350"/><use xlink:href="#L1_1" x="-350" y="0"/><use xlink:href="#L1_1" x="0" y="0"/><use xlink:href="#L1_1" x="350" y="0"/><use xlink:href="#L1_1" x="-350" y="350"/><use xlink:href="#L1_1" x="0" y="350"/><use xlink:href="#L1_1" x="350" y="350"/></pattern><rect x="0" y="0" width="100%" height="100%" fill="url(#pattern_L1_1)"/></g></svg>