<svg width="49" height="41" viewBox="0 0 49 41" fill="none" xmlns="http://www.w3.org/2000/svg">
<g clip-path="url(#clip0)">
<path fill-rule="evenodd" clip-rule="evenodd" d="M44.32 25.4995H41.8488L38.0081 22.3027C38.0622 22.0712 38.0912 21.833 38.0912 21.59V19.0399C38.0912 16.9737 36.0837 15.2997 33.5976 15.2997H30.534C29.7442 15.2997 29.1039 15.8326 29.1039 16.49C29.1039 17.1474 29.7442 17.6803 30.534 17.6803H33.5975C34.522 17.6803 35.2309 18.3078 35.2309 19.0399V20.4036C34.8318 20.38 34.4231 20.4942 34.118 20.7482C33.5595 21.2131 33.5595 21.9667 34.118 22.4316L34.4793 22.7324C34.2246 22.8692 33.9223 22.9496 33.5975 22.9496H30.5339C29.7441 22.9496 29.1039 23.4825 29.1039 24.1399C29.1039 24.7973 29.7441 25.3302 30.5339 25.3302H33.5975C34.7231 25.3302 35.7391 24.9887 36.5194 24.4304L38.6421 26.1973C37.5045 26.8752 36.7626 27.9837 36.7626 29.2398V34.3398C36.7626 36.3714 38.7359 38.08 41.2562 38.08H41.3579V39.4396C41.3579 40.097 41.9982 40.63 42.788 40.63C43.5777 40.63 44.218 40.097 44.218 39.4396V38.08H44.3198C46.84 38.08 48.8134 36.3715 48.8134 34.3398V29.2398C48.8136 27.1735 46.8062 25.4995 44.32 25.4995V25.4995ZM45.9534 34.3397C45.9534 35.078 45.2358 35.6993 44.32 35.6993H44.2182V35.6147C44.2182 34.9573 43.5779 34.4244 42.7881 34.4244C41.9984 34.4244 41.3581 34.9573 41.3581 35.6147V35.6994H41.2564C40.3407 35.6994 39.623 35.0781 39.623 34.3398V29.2398C39.623 28.65 40.0836 28.1288 40.7457 27.9481L41.777 28.8065C42.3353 29.2712 43.2409 29.2714 43.7994 28.8065C44.1046 28.5525 44.2417 28.2123 44.2135 27.8801H44.3201C45.2446 27.8801 45.9535 28.5077 45.9535 29.2397V34.3397H45.9534Z" fill="#5C22D8"/>
<path fill-rule="evenodd" clip-rule="evenodd" d="M18.2796 17.6804C19.0694 17.6804 19.7097 17.1474 19.7097 16.4901C19.7097 15.8327 19.0694 15.2997 18.2796 15.2997H15.2161C14.0985 15.2997 13.0785 15.6387 12.2933 16.1988L10.1709 14.4322C11.3157 13.7479 12.0508 12.6296 12.0508 11.3901V6.29027C12.0508 4.22401 10.0435 2.55001 7.55723 2.55001H7.45551V1.19033C7.45551 0.532951 6.81521 0 6.02542 0C5.23564 0 4.59534 0.532951 4.59534 1.19033V2.54993H4.49361C2.01118 2.54993 0 4.22084 0 6.29027V11.3902C0 13.4219 1.97323 15.1305 4.49361 15.1305H6.9648L10.8049 18.3268C10.7514 18.5578 10.7225 18.7961 10.7225 19.0401V21.5901C10.7225 23.6218 12.6959 25.3303 15.2161 25.3303H18.2796C19.0694 25.3303 19.7097 24.7974 19.7097 24.14C19.7097 23.4826 19.0694 22.9497 18.2796 22.9497H15.2161C14.3157 22.9497 13.5827 22.339 13.5827 21.5901V20.2264C13.9817 20.2499 14.3904 20.1357 14.6955 19.8817C15.254 19.4169 15.254 18.6632 14.6955 18.1984L14.3333 17.8968C14.5856 17.7611 14.8867 17.6804 15.2161 17.6804H18.2796ZM2.86017 11.3901V6.29027C2.86017 5.55806 3.5693 4.93067 4.49361 4.93067H4.59534V5.01527C4.59534 5.67265 5.23564 6.2056 6.02542 6.2056C6.81521 6.2056 7.45551 5.67265 7.45551 5.01527V4.93059H7.55714C8.48164 4.93059 9.19058 5.55814 9.19058 6.29019V11.3901C9.19058 11.984 8.7258 12.5015 8.06749 12.6816L7.03659 11.8235C6.47819 11.3586 5.57266 11.3586 5.01416 11.8235C4.70898 12.0774 4.57189 12.4176 4.60011 12.7498H4.49352C3.57798 12.7498 2.86017 12.1285 2.86017 11.3901V11.3901Z" fill="#5C22D8"/>
<path fill-rule="evenodd" clip-rule="evenodd" d="M17.2685 29.6732L15.7367 30.9482C15.1782 31.413 15.1782 32.1667 15.7367 32.6315C16.295 33.0963 17.2006 33.0965 17.7591 32.6315L19.2909 31.3565C19.8494 30.8917 19.8494 30.138 19.2909 29.6732C18.7324 29.2082 17.8269 29.2082 17.2685 29.6732Z" fill="#5C22D8"/>
<path fill-rule="evenodd" clip-rule="evenodd" d="M27.9909 7.99843L26.4591 9.27344C25.9006 9.7383 25.9006 10.4919 26.4591 10.9568C27.0174 11.4216 27.9231 11.4218 28.4816 10.9568L30.0134 9.6818C30.5719 9.21694 30.5719 8.46329 30.0134 7.99843C29.4549 7.53356 28.5493 7.53356 27.9909 7.99843Z" fill="#5C22D8"/>
<path fill-rule="evenodd" clip-rule="evenodd" d="M25.418 25.8481C24.8595 25.3833 23.954 25.3833 23.3955 25.8481C22.8371 26.313 22.8371 27.0666 23.3955 27.5315L24.9274 28.8064C25.4858 29.2711 26.3912 29.2714 26.9498 28.8064C27.5082 28.3416 27.5082 27.5879 26.9498 27.1231L25.418 25.8481Z" fill="#5C22D8"/>
<path d="M21.3433 12.5805C22.1331 12.5805 22.7733 12.0476 22.7733 11.3902C22.7733 10.7328 22.1331 10.1998 21.3433 10.1998C20.5534 10.1998 19.9132 10.7328 19.9132 11.3902C19.9132 12.0476 20.5534 12.5805 21.3433 12.5805Z" fill="#5C22D8"/>
</g>
<defs>
<clipPath id="clip0">
<rect width="48.8136" height="40.63" rx="4" fill="white"/>
</clipPath>
</defs>
</svg>
