<svg width="50" height="49" viewBox="0 0 50 49" fill="none" xmlns="http://www.w3.org/2000/svg">
<g clip-path="url(#clip0)">
<path d="M45.7824 22.0948C43.596 19.9304 40.5977 18.677 37.3043 18.785C35.8456 12.3038 29.5501 7.4718 21.9631 7.4718C12.1936 7.4718 5.27569 15.2154 6.09818 22.5405C3.00366 23.9765 0.768341 26.9349 0.382408 30.4358C0.382026 30.4388 0.381645 30.442 0.381359 30.445C-0.260941 36.3216 4.40238 41.4274 10.3324 41.4274H37.6932C37.6932 41.4274 37.6932 41.4274 37.6933 41.4274C40.7489 41.4273 43.6217 40.2494 45.7824 38.1105C50.2533 33.6846 50.2537 26.5211 45.7824 22.0948ZM43.7599 36.1086C42.1394 37.7128 39.9848 38.6152 37.693 38.6152H10.3324C6.02887 38.6152 2.67322 34.8381 3.24745 30.5777C3.73739 26.9899 6.92963 24.4403 10.3324 24.4403C11.1222 24.4403 11.7624 23.8064 11.7624 23.0247C11.7624 22.2429 11.1221 21.6091 10.3324 21.6091C9.84759 21.6091 9.37108 21.6441 8.90449 21.7103C8.90373 21.6766 8.90239 21.6427 8.90239 21.6091C8.90239 15.3646 14.7614 10.2842 21.963 10.2842C28.081 10.2842 33.2266 14.0494 34.4747 19.2305C32.6527 19.7563 30.9829 20.7294 29.6037 22.0948C29.0453 22.6476 29.0453 23.5439 29.6037 24.0967C30.1622 24.6496 31.0675 24.6496 31.626 24.0967C34.9551 20.8011 40.3847 20.7554 43.7599 24.0967C47.1132 27.4163 47.1134 32.7888 43.7599 36.1086Z" fill="#FFFFFF"/>
</g>
<defs>
<clipPath id="clip0">
<rect x="0.322021" y="0.288574" width="48.8136" height="48.3221" rx="4" fill="white"/>
</clipPath>
</defs>
</svg>
