<svg width="49" height="41" viewBox="0 0 49 41" fill="none" xmlns="http://www.w3.org/2000/svg">
<g clip-path="url(#clip0)">
<path d="M44.5233 0C42.1577 0 40.2331 1.60195 40.2331 3.571V22.6163C40.2331 22.7591 40.2639 22.9006 40.3241 23.0343L43.1843 29.3827C43.3935 29.8473 43.9272 30.1551 44.5233 30.1551C45.1195 30.1551 45.6531 29.8473 45.8624 29.3827L48.7225 23.0343C48.7828 22.9006 48.8136 22.7591 48.8136 22.6163V3.571C48.8136 1.60195 46.889 0 44.5233 0ZM43.0932 3.571C43.0932 2.91465 43.7348 2.38066 44.5233 2.38066C45.3119 2.38066 45.9534 2.91465 45.9534 3.571V4.76133H43.0932V3.571ZM45.9534 21.426H43.0932V7.14199H45.9534V21.426ZM43.7268 23.8066H45.3199L44.5233 25.5747L43.7268 23.8066Z" fill="#5C22D8"/>
<path d="M39.5657 30.3138H33.3686V1.19033C33.3686 0.532951 32.7283 0 31.9386 0H1.43008C0.640297 0 0 0.532951 0 1.19033V36.2655C0 38.6721 2.3523 40.63 5.24364 40.63H35.7521C38.6435 40.63 40.9958 38.6721 40.9958 36.2655V31.5041C40.9958 30.8467 40.3555 30.3138 39.5657 30.3138ZM5.24364 38.2493C3.9294 38.2493 2.86017 37.3594 2.86017 36.2655V2.38066H30.5085V36.2655C30.5085 36.9793 30.7155 37.6538 31.0821 38.2493H5.24364ZM38.1356 36.2655C38.1356 37.3594 37.0664 38.2493 35.7521 38.2493C34.4379 38.2493 33.3686 37.3594 33.3686 36.2655V32.6945H38.1356V36.2655Z" fill="#5C22D8"/>
<path d="M26.2182 33.488H12.8708C12.081 33.488 11.4407 34.021 11.4407 34.6784C11.4407 35.3358 12.081 35.8687 12.8708 35.8687H26.2182C27.008 35.8687 27.6483 35.3358 27.6483 34.6784C27.6483 34.021 27.008 33.488 26.2182 33.488Z" fill="#5C22D8"/>
<path d="M7.15042 35.8687C7.94024 35.8687 8.58051 35.3358 8.58051 34.6784C8.58051 34.021 7.94024 33.488 7.15042 33.488C6.36061 33.488 5.72034 34.021 5.72034 34.6784C5.72034 35.3358 6.36061 35.8687 7.15042 35.8687Z" fill="#5C22D8"/>
<path d="M26.2182 28.7267H12.8708C12.081 28.7267 11.4407 29.2596 11.4407 29.917C11.4407 30.5744 12.081 31.1074 12.8708 31.1074H26.2182C27.008 31.1074 27.6483 30.5744 27.6483 29.917C27.6483 29.2596 27.008 28.7267 26.2182 28.7267Z" fill="#5C22D8"/>
<path d="M7.15042 31.1074C7.94024 31.1074 8.58051 30.5744 8.58051 29.917C8.58051 29.2596 7.94024 28.7267 7.15042 28.7267C6.36061 28.7267 5.72034 29.2596 5.72034 29.917C5.72034 30.5744 6.36061 31.1074 7.15042 31.1074Z" fill="#5C22D8"/>
<path d="M26.2182 23.9653H12.8708C12.081 23.9653 11.4407 24.4983 11.4407 25.1557C11.4407 25.813 12.081 26.346 12.8708 26.346H26.2182C27.008 26.346 27.6483 25.813 27.6483 25.1557C27.6483 24.4983 27.008 23.9653 26.2182 23.9653Z" fill="#5C22D8"/>
<path d="M7.15042 26.346C7.94024 26.346 8.58051 25.8131 8.58051 25.1557C8.58051 24.4983 7.94024 23.9653 7.15042 23.9653C6.36061 23.9653 5.72034 24.4983 5.72034 25.1557C5.72034 25.8131 6.36061 26.346 7.15042 26.346Z" fill="#5C22D8"/>
<path d="M26.2182 19.204H12.8708C12.081 19.204 11.4407 19.7369 11.4407 20.3943C11.4407 21.0517 12.081 21.5846 12.8708 21.5846H26.2182C27.008 21.5846 27.6483 21.0517 27.6483 20.3943C27.6483 19.7369 27.008 19.204 26.2182 19.204Z" fill="#5C22D8"/>
<path d="M7.15042 21.5846C7.94024 21.5846 8.58051 21.0517 8.58051 20.3943C8.58051 19.7369 7.94024 19.204 7.15042 19.204C6.36061 19.204 5.72034 19.7369 5.72034 20.3943C5.72034 21.0517 6.36061 21.5846 7.15042 21.5846Z" fill="#5C22D8"/>
<path d="M26.2182 14.4427H12.8708C12.081 14.4427 11.4407 14.9757 11.4407 15.6331C11.4407 16.2905 12.081 16.8234 12.8708 16.8234H26.2182C27.008 16.8234 27.6483 16.2905 27.6483 15.6331C27.6483 14.9757 27.008 14.4427 26.2182 14.4427Z" fill="#5C22D8"/>
<path d="M7.15042 16.8234C7.94024 16.8234 8.58051 16.2905 8.58051 15.6331C8.58051 14.9757 7.94024 14.4427 7.15042 14.4427C6.36061 14.4427 5.72034 14.9757 5.72034 15.6331C5.72034 16.2905 6.36061 16.8234 7.15042 16.8234Z" fill="#5C22D8"/>
<path d="M26.2182 9.6814H12.8708C12.081 9.6814 11.4407 10.2143 11.4407 10.8717C11.4407 11.5291 12.081 12.0621 12.8708 12.0621H26.2182C27.008 12.0621 27.6483 11.5291 27.6483 10.8717C27.6483 10.2143 27.008 9.6814 26.2182 9.6814Z" fill="#5C22D8"/>
<path d="M7.15042 12.0621C7.94024 12.0621 8.58051 11.5291 8.58051 10.8717C8.58051 10.2143 7.94024 9.6814 7.15042 9.6814C6.36061 9.6814 5.72034 10.2143 5.72034 10.8717C5.72034 11.5291 6.36061 12.0621 7.15042 12.0621Z" fill="#5C22D8"/>
<path d="M26.2182 4.92004H12.8708C12.081 4.92004 11.4407 5.453 11.4407 6.11038C11.4407 6.76776 12.081 7.30071 12.8708 7.30071H26.2182C27.008 7.30071 27.6483 6.76776 27.6483 6.11038C27.6483 5.453 27.008 4.92004 26.2182 4.92004Z" fill="#5C22D8"/>
<path d="M7.15042 7.30071C7.94024 7.30071 8.58051 6.76778 8.58051 6.11038C8.58051 5.45297 7.94024 4.92004 7.15042 4.92004C6.36061 4.92004 5.72034 5.45297 5.72034 6.11038C5.72034 6.76778 6.36061 7.30071 7.15042 7.30071Z" fill="#5C22D8"/>
</g>
<defs>
<clipPath id="clip0">
<rect width="48.8136" height="40.63" rx="4" fill="white"/>
</clipPath>
</defs>
</svg>
