<svg width="50" height="49" viewBox="0 0 50 49" fill="none" xmlns="http://www.w3.org/2000/svg">
<g clip-path="url(#clip0)">
<path d="M24.6771 0.342285C11.4863 0.342285 0.755188 10.9658 0.755188 24.0236C0.755188 29.1341 2.85057 33.7228 3.75166 35.4586C4.17118 36.267 5.17354 36.5851 5.98976 36.17C6.80619 35.7547 7.12797 34.7627 6.70846 33.9545C5.91817 32.4317 4.07965 28.4157 4.07965 24.0233C4.07943 12.7803 13.3195 3.63306 24.6771 3.63306C36.0358 3.63306 45.2765 12.7803 45.2765 24.0236C45.2765 35.2673 36.0358 44.4145 24.6771 44.4145C20.235 44.4145 16.7053 42.892 15.3938 42.2371C15.0049 42.0427 14.5543 42.0076 14.1395 42.1391L3.66988 45.4511C2.79561 45.7277 2.31315 46.6536 2.59261 47.5192C2.81821 48.2184 3.47198 48.6642 4.17539 48.6642C4.34315 48.6642 4.51357 48.639 4.68178 48.5857L14.5195 45.4735C16.5777 46.4192 20.2002 47.7053 24.6771 47.7053C37.8685 47.7053 48.6007 37.0818 48.6007 24.0236C48.6007 10.9658 37.8685 0.342285 24.6771 0.342285Z" fill="#FFFFFF"/>
<path d="M19.9609 19.9853C19.2329 20.5388 19.0961 21.5717 19.655 22.2926C20.2142 23.0133 21.2573 23.1488 21.9858 22.5953C22.4953 22.2079 23.8487 21.179 23.6506 19.3386C23.5284 18.2445 22.4501 16.7433 21.5669 15.6768C20.2747 14.1161 19.1808 13.1918 18.3218 12.9317C17.5169 12.6846 16.692 12.7237 15.8694 13.0479C14.1771 13.7175 12.9828 14.8267 12.4155 16.2558C11.863 17.6476 11.9634 19.205 12.7065 20.7613C14.4411 24.386 16.7594 27.5164 19.5972 30.0661C19.6083 30.0764 19.6196 30.0865 19.6309 30.0965C22.509 32.6151 25.9141 34.5555 29.7532 35.8648C30.4816 36.1125 31.1966 36.236 31.8831 36.236C32.7457 36.236 33.5636 36.0412 34.3076 35.6529C35.6796 34.9368 36.6614 33.6396 37.1474 31.8981C37.3814 31.0539 37.3291 30.2387 36.9947 29.4796C36.6359 28.658 35.5874 27.6842 33.8779 26.5853C32.7102 25.8346 31.0853 24.9399 29.9686 24.9399H29.9662C28.1033 24.9474 27.2188 26.3925 26.8859 26.9367C26.4103 27.714 26.6612 28.7258 27.4464 29.1966C28.2311 29.6674 29.2534 29.4193 29.7293 28.6418C29.8607 28.4268 29.944 28.3127 29.9963 28.2531C30.9351 28.5229 33.4462 30.149 33.9608 30.8332C33.9692 30.8697 33.9703 30.9247 33.9426 31.025C33.7788 31.6118 33.44 32.386 32.7572 32.7423C32.1192 33.0749 31.3584 32.9317 30.8342 32.7535C27.4185 31.5886 24.3956 29.8704 21.8493 27.6465L21.847 27.6443C19.3257 25.3828 17.2611 22.5934 15.7109 19.3541C15.4736 18.8566 15.2455 18.1241 15.5093 17.46C15.7916 16.7487 16.5316 16.3301 17.1011 16.1048C17.1989 16.0662 17.2541 16.0603 17.2942 16.0656C18.0384 16.4967 19.9467 18.7864 20.3214 19.6804C20.2674 19.7381 20.1619 19.8324 19.9609 19.9853Z" fill="#FFFFFF"/>
</g>
<defs>
<clipPath id="clip0">
<rect width="48.8136" height="48.3221" fill="white" transform="translate(0.271179 0.342285)"/>
</clipPath>
</defs>
</svg>
