<svg width="451" height="69" viewBox="0 0 451 69" fill="none" xmlns="http://www.w3.org/2000/svg">
<path d="M419.5 18H402V68H419.5V50.5L429.5 68H450.5L435 42L449 18H428.5L419.5 33.5V18Z" fill="white"/>
<path d="M377 36.5H395C396 28 389.5 22 389.5 22C389.5 22 383.5 16 367 17C350.5 18 347.179 29.5 347 32C346.5 39 346 43 347 53C347 53 348 67.5 367 68.5C386 69.5 389.5 63 389.5 63C389.5 63 395.5 57 395 49H377C377 49 375.5 52.5 374.5 53.5C373.5 54.5 370 56 367 53C367 53 365.5 51 365.5 43C365.5 35 367 32.5 367 32.5C370 30 373.5 31 374.5 32C375.5 33 377 36.5 377 36.5Z" fill="white"/>
<path d="M316.5 31C311.5 31 311 36 311 36H292C292 36 292.5 16.5 316.5 16.5C340.5 16.5 340.5 36 340.5 36V53C340.5 53 340 69 316.5 69C293 69 292.5 53 292.5 53L292 36.5H311V50.5C311 50.5 311.327 54.5 316.5 54.5C321.673 54.5 321.5 50.5 321.5 50.5V36C321.5 36 321.5 31 316.5 31Z" fill="white"/>
<path d="M292.082 39.5L292 36.5V36L311 30V39L292.082 39.5Z" fill="white"/>
<path d="M155 31H137V17.5H165C165 17.5 175.5 17.5 180.5 24C185.5 30.5 182.5 39 177 42C177 42 186 45 183.5 56.5C181 68 167.5 68 167.5 68H137V50.5H155V56H162C164 56 165 54.5 165 51.5C165 51.5 165 48.5 162 48.5H155V50H137V31.5H155V36.5H162C162 36.5 164 36 164 33C164 30 162 30 162 30H155V31Z" fill="white"/>
<path d="M241 33V18H286.5V33H273V68H255V33H241Z" fill="white"/>
<path d="M218 33.5L235 33C234.601 27.9503 231.5 19.5 217 17.5C206 16.5 198.634 18.0995 193 24.5C187.088 32.602 191 47.5001 206 48.5C221 49.5 217 54 217 54C214 56 209.5 55.5 206 52H189C191 62.5 198 68.5 212.5 68.5C226.833 68.9616 236.5 60 237 52.5C237 40 223.655 35.5536 215 36C206.345 36.4465 208 32 209.5 31C211 30 214.747 30.322 218 33.5Z" fill="white"/>
<path d="M128 54V68H87V17.5H128V31.5H104V36H126V49.5H104V54H128Z" fill="white"/>
<path d="M3 15L1 1H24L25.5 11L13 7.5L3 15Z" fill="#34EBC0" stroke="#34EBC0"/>
<path d="M14 13L4 20.5L11 68H31L40 46L49 68H69.5L79 1H56L52 30L47 16H33L28 30L26 16L14 13Z" fill="white" stroke="white"/>
<path d="M155 34V29H146H137V34H155Z" fill="white"/>
<path d="M155 48H137V52H155V48Z" fill="white"/>
</svg>
